M48
;GenerationSoftware,Autodesk,EAGLE,9.6.2*%
;CreationDate,2020-07-22T17:21:45Z*%
FMAT,2
ICI,OFF
METRIC,TZ,000.000
T8C0.305
T7C0.350
T6C0.381
T5C0.900
T4C1.016
T3C1.500
T2C2.032
T1C3.302
%
G90
M71
T1
X53848Y2540
X2540Y169926
X48260Y169926
X48260Y117856
X2540Y117856
X53848Y112268
X99568Y112268
X53848Y60198
X53848Y169926
X99568Y169926
X2540Y112268
X48260Y112268
X48260Y2540
X2540Y2540
X2540Y54610
X48260Y60198
X99568Y117856
X2540Y60198
X53848Y117856
X99568Y60198
X99568Y54610
X99568Y2540
X48260Y54610
X53848Y54610
T2
X26670Y68072
X26670Y63500
X26670Y10414
X77978Y125730
X77978Y121158
X77978Y10414
X77978Y63500
X26670Y121158
X26670Y5842
X77978Y5842
X77978Y68072
X26670Y125730
T3
X43942Y35520
X43942Y40520
X36870Y6858
X41870Y6858
X6858Y26296
X6858Y21296
X6858Y16296
X6858Y11296
X58166Y99782
X43942Y30520
X43942Y25520
X58166Y152440
X58166Y157440
X58166Y162440
X93178Y122174
X6858Y89782
X6858Y94782
X6858Y99782
X6858Y104782
X6858Y32124
X6858Y37124
X6858Y42124
X6858Y47124
X58166Y68954
X58166Y73954
X58166Y78954
X58166Y83954
X93178Y64516
X88178Y64516
X95250Y98178
X95250Y93178
X95250Y88178
X95250Y83178
X58166Y89782
X58166Y94782
X58166Y104782
X58166Y11296
X58166Y16296
X58166Y21296
X58166Y26296
X93178Y6858
X88178Y6858
X95250Y40520
X95250Y35520
X95250Y30520
X95250Y25520
X6858Y126612
X6858Y131612
X6858Y136612
X6858Y141612
X41870Y122174
X36870Y122174
X43942Y155836
X43942Y150836
X58166Y32124
X58166Y37124
X58166Y42124
X58166Y47124
X43942Y145836
X43942Y140836
X6858Y147440
X6858Y152440
X6858Y157440
X6858Y162440
X58166Y126612
X58166Y131612
X58166Y136612
X58166Y141612
X88178Y122174
X95250Y155836
X95250Y150836
X6858Y68954
X6858Y73954
X6858Y78954
X6858Y83954
X41870Y64516
X36870Y64516
X43942Y98178
X43942Y93178
X43942Y88178
X43942Y83178
X95250Y145836
X95250Y140836
X58166Y147440
T4
X33020Y36830
X33020Y34290
X33020Y31750
X33020Y29210
X49530Y8890
X49530Y11430
X75438Y171196
X72898Y171196
X46139Y45844
X43421Y45844
X40704Y45844
X36830Y55880
X34290Y55880
X31750Y55880
X29210Y55880
X26670Y55880
X24130Y55880
X21590Y55880
X19050Y55880
X16510Y55880
X13970Y55880
X84328Y36830
X84328Y34290
X84328Y31750
X84328Y29210
X100838Y8890
X100838Y11430
X70358Y171196
X67818Y171196
X97447Y45844
X94729Y45844
X92012Y45844
X88138Y55880
X85598Y55880
X83058Y55880
X80518Y55880
X77978Y55880
X75438Y55880
X72898Y55880
X70358Y55880
X67818Y55880
X65278Y55880
X33020Y94488
X33020Y91948
X33020Y89408
X33020Y86868
X49530Y66548
X49530Y69088
X83058Y113538
X80518Y113538
X77978Y113538
X75438Y113538
X72898Y113538
X70358Y113538
X67818Y113538
X65278Y113538
X13970Y113538
X65278Y171196
X46139Y103502
X43421Y103502
X40704Y103502
X36830Y113538
X34290Y113538
X31750Y113538
X29210Y113538
X26670Y113538
X33020Y152146
X33020Y149606
X33020Y147066
X33020Y144526
X49530Y124206
X49530Y126746
X24130Y113538
X84328Y94488
X84328Y89408
X46139Y161160
X43421Y161160
X40704Y161160
X36830Y171196
X34290Y171196
X31750Y171196
X29210Y171196
X26670Y171196
X24130Y171196
X21590Y171196
X19050Y171196
X16510Y171196
X13970Y171196
X84328Y86868
X100838Y66548
X100838Y69088
X84328Y91948
X21590Y113538
X19050Y113538
X16510Y113538
X97447Y103502
X84328Y152146
X84328Y149606
X84328Y147066
X84328Y144526
X100838Y124206
X100838Y126746
X94729Y103502
X92012Y103502
X88138Y113538
X85598Y113538
X97447Y161160
X94729Y161160
X92012Y161160
X88138Y171196
X85598Y171196
X83058Y171196
X80518Y171196
X77978Y171196
T5
X19512Y47501
X19512Y39881
X70820Y47501
X70820Y39881
X19512Y97539
X19512Y105159
X70820Y97539
X70820Y162817
X70820Y155197
X19512Y162817
X19512Y155197
X70820Y105159
T6
X78544Y101214
X80447Y94887
X74734Y93043
X74054Y88778
X74191Y85695
X74211Y84458
X74229Y83350
X74206Y82177
X74960Y81460
X78821Y87742
X71902Y93180
X71923Y94173
X71885Y95131
X74267Y94079
X79256Y95448
X81283Y95524
X77318Y74605
X82446Y74519
X79449Y71331
X77513Y71354
X71067Y73663
X72520Y72365
X77986Y99939
X78008Y98229
X74564Y98610
X74564Y100592
X78837Y80978
X77409Y80754
X74465Y79103
X72301Y79040
X73066Y77587
X77328Y76147
X83048Y77546
X83127Y80582
X83127Y83228
X80947Y85095
X81026Y99263
X67457Y66845
X67462Y99012
X67457Y87945
X67457Y82771
X67457Y77739
X67457Y72608
X79680Y104122
X69167Y93586
X69167Y103922
X18285Y140617
X23398Y144851
X26756Y145867
X26871Y150825
X21770Y152491
X20391Y142685
X20358Y139182
X29124Y144155
X30460Y126487
X30411Y128133
X32393Y124973
X30472Y120388
X30427Y121945
X32309Y123401
X17648Y117020
X24854Y159487
X27236Y158872
X29139Y152545
X23426Y150701
X22746Y146436
X22883Y143353
X22903Y142116
X22921Y141008
X22898Y139835
X23652Y139118
X27513Y145400
X20594Y150838
X20615Y151831
X20577Y152789
X22959Y151737
X27948Y153106
X29975Y153182
X26010Y132263
X31138Y132177
X28141Y128989
X26205Y129012
X19759Y131321
X21212Y130023
X26678Y157597
X26700Y155887
X23256Y156268
X23256Y158250
X27529Y138636
X26101Y138412
X23157Y136761
X20993Y136698
X21758Y135245
X81768Y11171
X31740Y135204
X31819Y138240
X31819Y140886
X29639Y142753
X29718Y156921
X16149Y124503
X16154Y156670
X16149Y145603
X16149Y140429
X16149Y135397
X16149Y130266
X28372Y161780
X17859Y151244
X17859Y161580
X69593Y140617
X74706Y144851
X78064Y145867
X78179Y150825
X73078Y152491
X71699Y142685
X71666Y139182
X80432Y144155
X81768Y126487
X81719Y128133
X83701Y124973
X81780Y120388
X81735Y121945
X83617Y123401
X68956Y117020
X76162Y159487
X78544Y158872
X80447Y152545
X74734Y150701
X74054Y146436
X74191Y143353
X74211Y142116
X74229Y141008
X74206Y139835
X74960Y139118
X78821Y145400
X71902Y150838
X71923Y151831
X71885Y152789
X74267Y151737
X79256Y153106
X81283Y153182
X77318Y132263
X82446Y132177
X79449Y128989
X77513Y129012
X71067Y131321
X72520Y130023
X77986Y157597
X78008Y155887
X74564Y156268
X74564Y158250
X78837Y138636
X77409Y138412
X74465Y136761
X72301Y136698
X73066Y135245
X77328Y133805
X83048Y135204
X83127Y138240
X83127Y140886
X80947Y142753
X81026Y156921
X67457Y124503
X67462Y156670
X67457Y145603
X67457Y140429
X67457Y135397
X67457Y130266
X79680Y161780
X69167Y151244
X69167Y161580
X18285Y25301
X23398Y29535
X26756Y30551
X26871Y35509
X21770Y37175
X20391Y27369
X20358Y23866
X29124Y28839
X30460Y11171
X30411Y12817
X32393Y9657
X30472Y5072
X30427Y6629
X32309Y8085
X17648Y1704
X24854Y44171
X27236Y43556
X29139Y37229
X23426Y35385
X22746Y31120
X22883Y28037
X22903Y26800
X22921Y25692
X22898Y24519
X23652Y23802
X27513Y30084
X20594Y35522
X20615Y36515
X20577Y37473
X22959Y36421
X27948Y37790
X29975Y37866
X26010Y16947
X31138Y16861
X28141Y13673
X26205Y13696
X19759Y16005
X21212Y14707
X26678Y42281
X26700Y40571
X23256Y40952
X23256Y42934
X27529Y23320
X26101Y23096
X23157Y21445
X20993Y21382
X21758Y19929
X26020Y18489
X31740Y19888
X31819Y22923
X31819Y25570
X29639Y27437
X29718Y41605
X16149Y9187
X16154Y41354
X16149Y30287
X16149Y25113
X16149Y20081
X16149Y14950
X28372Y46464
X17859Y35928
X17859Y46264
X69593Y25301
X74706Y29535
X78064Y30551
X78179Y35509
X73078Y37175
X71699Y27369
X71666Y23866
X80432Y28839
X81719Y12817
X83701Y9657
X81780Y5072
X81735Y6629
X83617Y8085
X68956Y1704
X76162Y44171
X78544Y43556
X80447Y37229
X74734Y35385
X74054Y31120
X74191Y28037
X74211Y26800
X74229Y25692
X74206Y24519
X74960Y23802
X78821Y30084
X71902Y35522
X71923Y36515
X71885Y37473
X74267Y36421
X79256Y37790
X81283Y37866
X77318Y16947
X82446Y16861
X79449Y13673
X77513Y13696
X71067Y16005
X72520Y14707
X77986Y42281
X78008Y40571
X74564Y40952
X74564Y42934
X78837Y23320
X77409Y23096
X74465Y21445
X72301Y21382
X73066Y19929
X77328Y18489
X83048Y19888
X83127Y22923
X83127Y25570
X80947Y27437
X81026Y41605
X67457Y9187
X67462Y41354
X67457Y30287
X26020Y133805
X67457Y25113
X67457Y20081
X67457Y14950
X79680Y46464
X69167Y35928
X69167Y46264
X18285Y82959
X23398Y87193
X26756Y88209
X26871Y93167
X21770Y94833
X20391Y85027
X20358Y81524
X29124Y86497
X30460Y68829
X30411Y70475
X32393Y67315
X30472Y62730
X30427Y64287
X32309Y65743
X17648Y59362
X24854Y101829
X27236Y101214
X29139Y94887
X23426Y93043
X22746Y88778
X22883Y85695
X22903Y84458
X22921Y83350
X22898Y82177
X23652Y81460
X27513Y87742
X20594Y93180
X20615Y94173
X20577Y95131
X22959Y94079
X27948Y95448
X29975Y95524
X26010Y74605
X31138Y74519
X28141Y71331
X26205Y71354
X19759Y73663
X21212Y72365
X26678Y99939
X26700Y98229
X23256Y98610
X23256Y100592
X27529Y80978
X26101Y80754
X23157Y79103
X20993Y79040
X21758Y77587
X26020Y76147
X31740Y77546
X31819Y80582
X31819Y83228
X29639Y85095
X29718Y99263
X16149Y66845
X16154Y99012
X16149Y87945
X16149Y82771
X16149Y77739
X16149Y72608
X28372Y104122
X17859Y93586
X17859Y103922
X69593Y82959
X74706Y87193
X78064Y88209
X78179Y93167
X73078Y94833
X71699Y85027
X71666Y81524
X80432Y86497
X81768Y68829
X81719Y70475
X83701Y67315
X81780Y62730
X81735Y64287
X83617Y65743
X68956Y59362
X76162Y101829
T7
X75082Y75768
X78816Y75768
X61468Y64008
X71507Y75559
X81813Y18110
X75082Y18110
X78816Y18110
X23774Y18110
X8514Y65893
X30505Y75768
X23774Y75768
X27508Y75768
X10160Y64008
X20199Y75559
X61468Y6350
X71507Y17901
X8514Y8235
X30505Y18110
X59822Y8235
X27508Y18110
X10160Y6350
X20199Y17901
X30505Y133426
X71507Y133217
X8514Y123551
X20199Y133217
X10160Y121666
X27508Y133426
X81813Y75768
X61468Y121666
X78816Y133426
X75082Y133426
X81813Y133426
X59822Y123551
X23774Y133426
X59822Y65893
T8
X25954Y33025
X25397Y33574
X24828Y90668
X25405Y90109
X25954Y90683
X25397Y91232
X76136Y33010
X76713Y32451
X76705Y148890
X77262Y33025
X76713Y147767
X76705Y33574
X76705Y91232
X76136Y90668
X76713Y90109
X77262Y90683
X77262Y148341
X24828Y33010
X24828Y148326
X25405Y147767
X25954Y148341
X25397Y148890
X25405Y32451
X76136Y148326
M30