M48
;GenerationSoftware,Autodesk,EAGLE,9.5.2*%
;CreationDate,2020-06-22T15:29:14Z*%
FMAT,2
ICI,OFF
METRIC,TZ,000.000
T8C0.305
T7C0.350
T6C0.381
T5C0.900
T4C1.016
T3C1.500
T2C2.032
T1C3.302
%
G90
M71
T1
X48260Y2540
X2540Y63500
X53848Y54610
X53848Y2540
X99568Y63500
X99568Y54610
X48260Y54610
X53848Y115570
X99568Y115570
X53848Y63500
X2540Y115570
X48260Y115570
X99568Y2540
X2540Y2540
X2540Y54610
X48260Y63500
T2
X77978Y10414
X77978Y5842
X26670Y10414
X26670Y5842
X77978Y71374
X77978Y66802
X26670Y71374
X26670Y66802
T3
X43942Y25520
X43942Y30520
X43942Y35520
X43942Y40520
X6858Y21296
X6858Y16296
X6858Y11296
X6858Y26296
X58166Y42124
X36870Y6858
X41870Y6858
X58166Y47124
X43942Y96480
X6858Y72256
X6858Y77256
X6858Y82256
X6858Y87256
X41870Y67818
X36870Y67818
X6858Y32124
X6858Y37124
X6858Y42124
X6858Y47124
X43942Y101480
X43942Y91480
X43942Y86480
X6858Y93084
X6858Y98084
X6858Y103084
X6858Y108084
X58166Y72256
X58166Y77256
X58166Y82256
X58166Y87256
X93178Y67818
X88178Y67818
X58166Y11296
X58166Y16296
X58166Y21296
X58166Y26296
X93178Y6858
X88178Y6858
X95250Y40520
X95250Y35520
X95250Y30520
X95250Y25520
X95250Y101480
X95250Y96480
X95250Y91480
X95250Y86480
X58166Y93084
X58166Y98084
X58166Y103084
X58166Y108084
X58166Y32124
X58166Y37124
T4
X33020Y90170
X33020Y36830
X33020Y34290
X33020Y31750
X33020Y29210
X49530Y8890
X49530Y11430
X77978Y116840
X75438Y116840
X46139Y45844
X43421Y45844
X40704Y45844
X36830Y55880
X34290Y55880
X31750Y55880
X29210Y55880
X26670Y55880
X24130Y55880
X21590Y55880
X19050Y55880
X16510Y55880
X13970Y55880
X84328Y36830
X84328Y34290
X84328Y31750
X84328Y29210
X100838Y8890
X100838Y11430
X72898Y116840
X70358Y116840
X67818Y116840
X65278Y116840
X70358Y55880
X67818Y55880
X65278Y55880
X94729Y45844
X46139Y106804
X43421Y106804
X40704Y106804
X36830Y116840
X34290Y116840
X31750Y116840
X29210Y116840
X26670Y116840
X24130Y116840
X21590Y116840
X19050Y116840
X16510Y116840
X13970Y116840
X92012Y45844
X88138Y55880
X85598Y55880
X83058Y55880
X80518Y55880
X77978Y55880
X97447Y45844
X75438Y55880
X72898Y55880
X33020Y97790
X84328Y97790
X84328Y95250
X84328Y92710
X84328Y90170
X100838Y69850
X100838Y72390
X33020Y95250
X33020Y92710
X49530Y69850
X49530Y72390
X97447Y106804
X94729Y106804
X92012Y106804
X88138Y116840
X85598Y116840
X83058Y116840
X80518Y116840
T5
X20950Y47528
X20950Y39908
X72258Y47528
X72258Y39908
X20950Y108488
X20950Y100868
X72258Y100868
X72258Y108488
T6
X20358Y84826
X29124Y89799
X30460Y72131
X30411Y73777
X32393Y70617
X30472Y66032
X30427Y67589
X32309Y69045
X17648Y62664
X24854Y105131
X27236Y104516
X29139Y98189
X23426Y96345
X22746Y92080
X22883Y88997
X22903Y87760
X22921Y86652
X22898Y85479
X23652Y84762
X27513Y91044
X20594Y96482
X20615Y97475
X20577Y98433
X22959Y97381
X27948Y98750
X29975Y98826
X26010Y77907
X31138Y77821
X28141Y74633
X26205Y74656
X19759Y76965
X21212Y75667
X26678Y103241
X26700Y101531
X23256Y101912
X23256Y103894
X27529Y84280
X26101Y84056
X23157Y82405
X20993Y82342
X21758Y80889
X26020Y79449
X31740Y80848
X31819Y83884
X31819Y86530
X29639Y88397
X29718Y102565
X16149Y70147
X16154Y102314
X16149Y91247
X16149Y86073
X16149Y81041
X16149Y75910
X28372Y107424
X17859Y96888
X17859Y107224
X69593Y86261
X74706Y90495
X78064Y91511
X78179Y96469
X73078Y98135
X71699Y88329
X29718Y41605
X80432Y89799
X81768Y72131
X81719Y73777
X83701Y70617
X81780Y66032
X81735Y67589
X83617Y69045
X68956Y62664
X76162Y105131
X78544Y104516
X80447Y98189
X74734Y96345
X74054Y92080
X74191Y88997
X74211Y87760
X74229Y86652
X74206Y85479
X74960Y84762
X78821Y91044
X71902Y96482
X71923Y97475
X71885Y98433
X74267Y97381
X79256Y98750
X81283Y98826
X77318Y77907
X82446Y77821
X79449Y74633
X77513Y74656
X71067Y76965
X72520Y75667
X77986Y103241
X78008Y101531
X74564Y101912
X74564Y103894
X78837Y84280
X77409Y84056
X74465Y82405
X72301Y82342
X73066Y80889
X77328Y79449
X83048Y80848
X83127Y83884
X83127Y86530
X80947Y88397
X81026Y102565
X67457Y70147
X67462Y102314
X67457Y91247
X67457Y86073
X67457Y81041
X67457Y75910
X79680Y107424
X69167Y96888
X69167Y107224
X18285Y25301
X23398Y29535
X26756Y30551
X26871Y35509
X21770Y37175
X20391Y27369
X20358Y23866
X29124Y28839
X30460Y11171
X30411Y12817
X32393Y9657
X30472Y5072
X30427Y6629
X32309Y8085
X17648Y1704
X24854Y44171
X27236Y43556
X29139Y37229
X23426Y35385
X22746Y31120
X22883Y28037
X22903Y26800
X22921Y25692
X22898Y24519
X23652Y23802
X27513Y30084
X20594Y35522
X20615Y36515
X20577Y37473
X22959Y36421
X27948Y37790
X29975Y37866
X26010Y16947
X31138Y16861
X28141Y13673
X26205Y13696
X19759Y16005
X21212Y14707
X26678Y42281
X26700Y40571
X23256Y40952
X23256Y42934
X27529Y23320
X26101Y23096
X23157Y21445
X20993Y21382
X21758Y19929
X26020Y18489
X31740Y19888
X31819Y22923
X31819Y25570
X29639Y27437
X16149Y9187
X16154Y41354
X16149Y30287
X16149Y25113
X16149Y20081
X16149Y14950
X28372Y46464
X17859Y35928
X17859Y46264
X69593Y25301
X74706Y29535
X78064Y30551
X78179Y35509
X73078Y37175
X71699Y27369
X71666Y23866
X80432Y28839
X81768Y11171
X81719Y12817
X83701Y9657
X81780Y5072
X71666Y84826
X81735Y6629
X83617Y8085
X68956Y1704
X76162Y44171
X78544Y43556
X80447Y37229
X74734Y35385
X74054Y31120
X74191Y28037
X74211Y26800
X74229Y25692
X74206Y24519
X74960Y23802
X78821Y30084
X71902Y35522
X71923Y36515
X71885Y37473
X74267Y36421
X79256Y37790
X81283Y37866
X77318Y16947
X82446Y16861
X79449Y13673
X77513Y13696
X71067Y16005
X72520Y14707
X77986Y42281
X78008Y40571
X74564Y40952
X74564Y42934
X78837Y23320
X77409Y23096
X74465Y21445
X72301Y21382
X73066Y19929
X77328Y18489
X83048Y19888
X83127Y22923
X83127Y25570
X80947Y27437
X81026Y41605
X67457Y9187
X67462Y41354
X67457Y30287
X67457Y25113
X67457Y20081
X67457Y14950
X79680Y46464
X69167Y35928
X69167Y46264
X18285Y86261
X23398Y90495
X26756Y91511
X26871Y96469
X21770Y98135
X20391Y88329
T7
X8514Y69195
X30505Y79070
X23774Y79070
X27508Y79070
X10160Y67310
X20199Y78861
X10160Y6350
X20199Y17901
X78816Y79070
X75082Y79070
X59822Y8235
X81813Y18110
X75082Y18110
X78816Y18110
X61468Y6350
X71507Y17901
X81813Y79070
X59822Y69195
X71507Y78861
X61468Y67310
X8514Y8235
X30505Y18110
X23774Y18110
X27508Y18110
T8
X24828Y93970
X25405Y93411
X25954Y93985
X25397Y94534
X76136Y33010
X76713Y32451
X77262Y33025
X76705Y33574
X25954Y33025
X25397Y33574
X24828Y33010
X25405Y32451
X76136Y93970
X76713Y93411
X77262Y93985
X76705Y94534
M30